<svg width="42" height="41" viewBox="0 0 42 41" fill="none" xmlns="http://www.w3.org/2000/svg">
<g clip-path="url(#clip0_1_37)">
<path d="M29.625 5.25002H13.375C8.88766 5.25002 5.24997 8.8877 5.24997 13.375V29.625C5.24997 34.1123 8.88766 37.75 13.375 37.75H29.625C34.1123 37.75 37.75 34.1123 37.75 29.625V13.375C37.75 8.8877 34.1123 5.25002 29.625 5.25002Z" fill="#EFEBEA"/>
<path d="M28.0001 20.4763C28.2007 21.8287 27.9697 23.2099 27.34 24.4234C26.7103 25.6369 25.714 26.621 24.4928 27.2357C23.2716 27.8504 21.8876 28.0643 20.5378 27.8471C19.188 27.6299 17.941 26.9926 16.9742 26.0259C16.0075 25.0591 15.3702 23.8122 15.153 22.4623C14.9358 21.1125 15.1497 19.7286 15.7644 18.5074C16.3791 17.2861 17.3632 16.2898 18.5767 15.6601C19.7903 15.0305 21.1715 14.7995 22.5239 15C23.9034 15.2046 25.1805 15.8474 26.1666 16.8335C27.1528 17.8196 27.7956 19.0968 28.0001 20.4763Z" stroke="#172324" stroke-width="2" stroke-linecap="round" stroke-linejoin="round"/>
<path d="M30.4375 12.5625H30.4538" stroke="#172324" stroke-width="2" stroke-linecap="round" stroke-linejoin="round"/>
</g>
<defs>
<clipPath id="clip0_1_37">
<rect width="40.9866" height="40.9866" fill="white" transform="translate(0.973206)"/>
</clipPath>
</defs>
</svg>
